# xmcd CD database file
#
# Track frame offsets:
#	150
#	23702
#	42022
#	60565
#	80437
#	101402
#	119507
#	146350
#	157632
#	179757
#	196742
#	221780
#	243147
#	266380
#
# Disc length: 3762 seconds
#
# Revision: 1
# Processed by: cddbd v1.4PL0 Copyright (c) Steve Scherf et al.
# Submitted via: CDex 1.50
#
DISCID=b10eb00e
DTITLE=The Swedish Jazz Kings - Come Love
DYEAR=1900
DGENRE=Jazz
TTITLE0=Apex Blues
TTITLE1=Buddy Bolden´s Blues
TTITLE2=Shine
TTITLE3=Worn Out Blues
TTITLE4=Travellin´ Alone
TTITLE5=No One Else But You
TTITLE6=Red River Blues
TTITLE7=Here Comes The Band
TTITLE8=Please Don't Talk About Me
TTITLE9=What Makes Me Love You So
TTITLE10=I Would Do Anything For You
TTITLE11=Aunt Hagar´s  Blues
TTITLE12=Comes Love
TTITLE13=Walk That Broad
EXTD=
EXTT0=
EXTT1=
EXTT2=
EXTT3=
EXTT4=
EXTT5=
EXTT6=
EXTT7=
EXTT8=
EXTT9=
EXTT10=
EXTT11=
EXTT12=
EXTT13=
PLAYORDER=
